<svg height="2830" width="720" xmlns="http://www.w3.org/2000/svg">
<rect height="2830" fill="#555" width="720"></rect>
<text fill="#7f7" font-family="Courier New" font-size="12" xml:space="preserve">
<tspan x="10" y="26">47 megabytes installed</tspan>
<tspan x="10" y="42"></tspan>
<tspan x="10" y="58">node_modules</tspan>
<tspan x="10" y="74">└─┬ thumbd@2.19.0 </tspan>
<tspan x="10" y="90">  ├── async@0.9.2 </tspan>
<tspan x="10" y="106">  ├─┬ aws-sdk@2.44.0 </tspan>
<tspan x="10" y="122">  │ ├─┬ buffer@4.9.1 </tspan>
<tspan x="10" y="138">  │ │ ├── base64-js@1.2.0 </tspan>
<tspan x="10" y="154">  │ │ ├── ieee754@1.1.8 </tspan>
<tspan x="10" y="170">  │ │ └── isarray@1.0.0 </tspan>
<tspan x="10" y="186">  │ ├── crypto-browserify@1.0.9 </tspan>
<tspan x="10" y="202">  │ ├── jmespath@0.15.0 </tspan>
<tspan x="10" y="218">  │ ├── querystring@0.2.0 </tspan>
<tspan x="10" y="234">  │ ├── sax@1.2.1 </tspan>
<tspan x="10" y="250">  │ ├─┬ url@0.10.3 </tspan>
<tspan x="10" y="266">  │ │ └── punycode@1.3.2 </tspan>
<tspan x="10" y="282">  │ ├── uuid@3.0.1 </tspan>
<tspan x="10" y="298">  │ ├── xml2js@0.4.17 </tspan>
<tspan x="10" y="314">  │ └─┬ xmlbuilder@4.2.1 </tspan>
<tspan x="10" y="330">  │   └── lodash@4.17.4 </tspan>
<tspan x="10" y="346">  ├─┬ knox@0.9.2 </tspan>
<tspan x="10" y="362">  │ ├─┬ debug@1.0.4 </tspan>
<tspan x="10" y="378">  │ │ └── ms@0.6.2 </tspan>
<tspan x="10" y="394">  │ ├── mime@1.3.4 </tspan>
<tspan x="10" y="410">  │ ├─┬ once@1.4.0 </tspan>
<tspan x="10" y="426">  │ │ └── wrappy@1.0.2 </tspan>
<tspan x="10" y="442">  │ └── stream-counter@1.0.0 </tspan>
<tspan x="10" y="458">  ├── lodash@3.10.1 </tspan>
<tspan x="10" y="474">  ├─┬ ndm@3.11.3 </tspan>
<tspan x="10" y="490">  │ ├─┬ chalk@0.5.1 </tspan>
<tspan x="10" y="506">  │ │ ├── ansi-styles@1.1.0 </tspan>
<tspan x="10" y="522">  │ │ ├── escape-string-regexp@1.0.5 </tspan>
<tspan x="10" y="538">  │ │ ├─┬ has-ansi@0.1.0 </tspan>
<tspan x="10" y="554">  │ │ │ └── ansi-regex@0.2.1 </tspan>
<tspan x="10" y="570">  │ │ ├── strip-ansi@0.3.0 </tspan>
<tspan x="10" y="586">  │ │ └── supports-color@0.2.0 </tspan>
<tspan x="10" y="602">  │ ├── ejs@1.0.0 </tspan>
<tspan x="10" y="618">  │ ├─┬ inquirer@0.5.1 </tspan>
<tspan x="10" y="634">  │ │ ├── async@0.8.0 </tspan>
<tspan x="10" y="650">  │ │ ├─┬ chalk@0.4.0 </tspan>
<tspan x="10" y="666">  │ │ │ ├── ansi-styles@1.0.0 </tspan>
<tspan x="10" y="682">  │ │ │ ├── has-color@0.1.7 </tspan>
<tspan x="10" y="698">  │ │ │ └── strip-ansi@0.1.1 </tspan>
<tspan x="10" y="714">  │ │ ├─┬ cli-color@0.3.3 </tspan>
<tspan x="10" y="730">  │ │ │ ├── d@0.1.1 </tspan>
<tspan x="10" y="746">  │ │ │ ├─┬ es5-ext@0.10.15 </tspan>
<tspan x="10" y="762">  │ │ │ │ ├─┬ es6-iterator@2.0.1 </tspan>
<tspan x="10" y="778">  │ │ │ │ │ └── d@1.0.0 </tspan>
<tspan x="10" y="794">  │ │ │ │ └─┬ es6-symbol@3.1.1 </tspan>
<tspan x="10" y="810">  │ │ │ │   └── d@1.0.0 </tspan>
<tspan x="10" y="826">  │ │ │ ├─┬ memoizee@0.3.10 </tspan>
<tspan x="10" y="842">  │ │ │ │ ├─┬ es6-weak-map@0.1.4 </tspan>
<tspan x="10" y="858">  │ │ │ │ │ ├── es6-iterator@0.1.3 </tspan>
<tspan x="10" y="874">  │ │ │ │ │ └── es6-symbol@2.0.1 </tspan>
<tspan x="10" y="890">  │ │ │ │ ├─┬ event-emitter@0.3.5 </tspan>
<tspan x="10" y="906">  │ │ │ │ │ └── d@1.0.0 </tspan>
<tspan x="10" y="922">  │ │ │ │ ├── lru-queue@0.1.0 </tspan>
<tspan x="10" y="938">  │ │ │ │ └── next-tick@0.2.2 </tspan>
<tspan x="10" y="954">  │ │ │ └─┬ timers-ext@0.1.2 </tspan>
<tspan x="10" y="970">  │ │ │   └── next-tick@1.0.0 </tspan>
<tspan x="10" y="986">  │ │ ├── lodash@2.4.2 </tspan>
<tspan x="10" y="1002">  │ │ ├── mute-stream@0.0.4 </tspan>
<tspan x="10" y="1018">  │ │ ├─┬ readline2@0.1.1 </tspan>
<tspan x="10" y="1034">  │ │ │ └─┬ strip-ansi@2.0.1 </tspan>
<tspan x="10" y="1050">  │ │ │   └── ansi-regex@1.1.1 </tspan>
<tspan x="10" y="1066">  │ │ └── through@2.3.8 </tspan>
<tspan x="10" y="1082">  │ ├── lodash@2.4.2 </tspan>
<tspan x="10" y="1098">  │ ├─┬ mkdirp@0.5.1 </tspan>
<tspan x="10" y="1114">  │ │ └── minimist@0.0.8 </tspan>
<tspan x="10" y="1130">  │ ├── node-uuid@1.4.8 </tspan>
<tspan x="10" y="1146">  │ ├─┬ npmconf@1.1.9 </tspan>
<tspan x="10" y="1162">  │ │ ├─┬ config-chain@1.1.11 </tspan>
<tspan x="10" y="1178">  │ │ │ └── proto-list@1.2.4 </tspan>
<tspan x="10" y="1194">  │ │ ├── inherits@2.0.3 </tspan>
<tspan x="10" y="1210">  │ │ ├── ini@1.3.4 </tspan>
<tspan x="10" y="1226">  │ │ ├─┬ nopt@3.0.6 </tspan>
<tspan x="10" y="1242">  │ │ │ └── abbrev@1.1.0 </tspan>
<tspan x="10" y="1258">  │ │ ├── once@1.3.3 </tspan>
<tspan x="10" y="1274">  │ │ ├─┬ osenv@0.1.4 </tspan>
<tspan x="10" y="1290">  │ │ │ └── os-homedir@1.0.2 </tspan>
<tspan x="10" y="1306">  │ │ ├── semver@2.3.2 </tspan>
<tspan x="10" y="1322">  │ │ └── uid-number@0.0.5 </tspan>
<tspan x="10" y="1338">  │ ├─┬ rc@0.4.0 </tspan>
<tspan x="10" y="1354">  │ │ ├── deep-extend@0.2.11 </tspan>
<tspan x="10" y="1370">  │ │ ├── ini@1.1.0 </tspan>
<tspan x="10" y="1386">  │ │ └── strip-json-comments@0.1.3 </tspan>
<tspan x="10" y="1402">  │ ├─┬ rimraf@2.6.1 </tspan>
<tspan x="10" y="1418">  │ │ └─┬ glob@7.1.1 </tspan>
<tspan x="10" y="1434">  │ │   ├── fs.realpath@1.0.0 </tspan>
<tspan x="10" y="1450">  │ │   ├── inflight@1.0.6 </tspan>
<tspan x="10" y="1466">  │ │   ├─┬ minimatch@3.0.3 </tspan>
<tspan x="10" y="1482">  │ │   │ └─┬ brace-expansion@1.1.7 </tspan>
<tspan x="10" y="1498">  │ │   │   ├── balanced-match@0.4.2 </tspan>
<tspan x="10" y="1514">  │ │   │   └── concat-map@0.0.1 </tspan>
<tspan x="10" y="1530">  │ │   └── path-is-absolute@1.0.1 </tspan>
<tspan x="10" y="1546">  │ ├── string@1.9.1 </tspan>
<tspan x="10" y="1562">  │ ├─┬ temp@0.8.3 </tspan>
<tspan x="10" y="1578">  │ │ └── rimraf@2.2.8 </tspan>
<tspan x="10" y="1594">  │ └── xml-escape@1.1.0 </tspan>
<tspan x="10" y="1610">  ├─┬ request@2.81.0 </tspan>
<tspan x="10" y="1626">  │ ├── aws-sign2@0.6.0 </tspan>
<tspan x="10" y="1642">  │ ├── aws4@1.6.0 </tspan>
<tspan x="10" y="1658">  │ ├── caseless@0.12.0 </tspan>
<tspan x="10" y="1674">  │ ├─┬ combined-stream@1.0.5 </tspan>
<tspan x="10" y="1690">  │ │ └── delayed-stream@1.0.0 </tspan>
<tspan x="10" y="1706">  │ ├── extend@3.0.0 </tspan>
<tspan x="10" y="1722">  │ ├── forever-agent@0.6.1 </tspan>
<tspan x="10" y="1738">  │ ├─┬ form-data@2.1.4 </tspan>
<tspan x="10" y="1754">  │ │ └── asynckit@0.4.0 </tspan>
<tspan x="10" y="1770">  │ ├─┬ har-validator@4.2.1 </tspan>
<tspan x="10" y="1786">  │ │ ├─┬ ajv@4.11.7 </tspan>
<tspan x="10" y="1802">  │ │ │ ├── co@4.6.0 </tspan>
<tspan x="10" y="1818">  │ │ │ └─┬ json-stable-stringify@1.0.1 </tspan>
<tspan x="10" y="1834">  │ │ │   └── jsonify@0.0.0 </tspan>
<tspan x="10" y="1850">  │ │ └── har-schema@1.0.5 </tspan>
<tspan x="10" y="1866">  │ ├─┬ hawk@3.1.3 </tspan>
<tspan x="10" y="1882">  │ │ ├── boom@2.10.1 </tspan>
<tspan x="10" y="1898">  │ │ ├── cryptiles@2.0.5 </tspan>
<tspan x="10" y="1914">  │ │ ├── hoek@2.16.3 </tspan>
<tspan x="10" y="1930">  │ │ └── sntp@1.0.9 </tspan>
<tspan x="10" y="1946">  │ ├─┬ http-signature@1.1.1 </tspan>
<tspan x="10" y="1962">  │ │ ├── assert-plus@0.2.0 </tspan>
<tspan x="10" y="1978">  │ │ ├─┬ jsprim@1.4.0 </tspan>
<tspan x="10" y="1994">  │ │ │ ├── assert-plus@1.0.0 </tspan>
<tspan x="10" y="2010">  │ │ │ ├── extsprintf@1.0.2 </tspan>
<tspan x="10" y="2026">  │ │ │ ├── json-schema@0.2.3 </tspan>
<tspan x="10" y="2042">  │ │ │ └── verror@1.3.6 </tspan>
<tspan x="10" y="2058">  │ │ └─┬ sshpk@1.13.0 </tspan>
<tspan x="10" y="2074">  │ │   ├── asn1@0.2.3 </tspan>
<tspan x="10" y="2090">  │ │   ├── assert-plus@1.0.0 </tspan>
<tspan x="10" y="2106">  │ │   ├── bcrypt-pbkdf@1.0.1 </tspan>
<tspan x="10" y="2122">  │ │   ├─┬ dashdash@1.14.1 </tspan>
<tspan x="10" y="2138">  │ │   │ └── assert-plus@1.0.0 </tspan>
<tspan x="10" y="2154">  │ │   ├── ecc-jsbn@0.1.1 </tspan>
<tspan x="10" y="2170">  │ │   ├─┬ getpass@0.1.6 </tspan>
<tspan x="10" y="2186">  │ │   │ └── assert-plus@1.0.0 </tspan>
<tspan x="10" y="2202">  │ │   ├── jodid25519@1.0.2 </tspan>
<tspan x="10" y="2218">  │ │   ├── jsbn@0.1.1 </tspan>
<tspan x="10" y="2234">  │ │   └── tweetnacl@0.14.5 </tspan>
<tspan x="10" y="2250">  │ ├── is-typedarray@1.0.0 </tspan>
<tspan x="10" y="2266">  │ ├── isstream@0.1.2 </tspan>
<tspan x="10" y="2282">  │ ├── json-stringify-safe@5.0.1 </tspan>
<tspan x="10" y="2298">  │ ├─┬ mime-types@2.1.15 </tspan>
<tspan x="10" y="2314">  │ │ └── mime-db@1.27.0 </tspan>
<tspan x="10" y="2330">  │ ├── oauth-sign@0.8.2 </tspan>
<tspan x="10" y="2346">  │ ├── performance-now@0.2.0 </tspan>
<tspan x="10" y="2362">  │ ├── qs@6.4.0 </tspan>
<tspan x="10" y="2378">  │ ├── safe-buffer@5.0.1 </tspan>
<tspan x="10" y="2394">  │ ├── stringstream@0.0.5 </tspan>
<tspan x="10" y="2410">  │ ├─┬ tough-cookie@2.3.2 </tspan>
<tspan x="10" y="2426">  │ │ └── punycode@1.4.1 </tspan>
<tspan x="10" y="2442">  │ └── tunnel-agent@0.6.0 </tspan>
<tspan x="10" y="2458">  ├── sprintf-js@1.0.3 </tspan>
<tspan x="10" y="2474">  ├─┬ tmp@0.0.31 </tspan>
<tspan x="10" y="2490">  │ └── os-tmpdir@1.0.2 </tspan>
<tspan x="10" y="2506">  └─┬ yargs@3.32.0 </tspan>
<tspan x="10" y="2522">    ├── camelcase@2.1.1 </tspan>
<tspan x="10" y="2538">    ├─┬ cliui@3.2.0 </tspan>
<tspan x="10" y="2554">    │ ├─┬ strip-ansi@3.0.1 </tspan>
<tspan x="10" y="2570">    │ │ └── ansi-regex@2.1.1 </tspan>
<tspan x="10" y="2586">    │ └─┬ wrap-ansi@2.1.0 </tspan>
<tspan x="10" y="2602">    │   └─┬ strip-ansi@3.0.1 </tspan>
<tspan x="10" y="2618">    │     └── ansi-regex@2.1.1 </tspan>
<tspan x="10" y="2634">    ├── decamelize@1.2.0 </tspan>
<tspan x="10" y="2650">    ├─┬ os-locale@1.4.0 </tspan>
<tspan x="10" y="2666">    │ └─┬ lcid@1.0.0 </tspan>
<tspan x="10" y="2682">    │   └── invert-kv@1.0.0 </tspan>
<tspan x="10" y="2698">    ├─┬ string-width@1.0.2 </tspan>
<tspan x="10" y="2714">    │ ├── code-point-at@1.1.0 </tspan>
<tspan x="10" y="2730">    │ ├─┬ is-fullwidth-code-point@1.0.0 </tspan>
<tspan x="10" y="2746">    │ │ └── number-is-nan@1.0.1 </tspan>
<tspan x="10" y="2762">    │ └─┬ strip-ansi@3.0.1 </tspan>
<tspan x="10" y="2778">    │   └── ansi-regex@2.1.1 </tspan>
<tspan x="10" y="2794">    ├── window-size@0.1.4 </tspan>
<tspan x="10" y="2810">    └── y18n@3.2.1</tspan>
</text>
</svg>
